# AST/ASF file generated using VICON BodyLanguage
# -----------------------------------------------
:version 1.10
:name VICON
:units
  mass 1.0
  length 0.45
  angle deg
:documentation
   .ast/.asf automatically generated from VICON data using
   VICON BodyBuilder and BodyLanguage model FoxedUp or BRILLIANT.MOD
:root
   order TX TY TZ RX RY RZ
   axis XYZ
   position 0 0 0  
   orientation 0 0 0 
:bonedata
  begin
     id 1 
     name lhipjoint
     direction 0.677091 -0.635792 0.370561 
     length 2.74323 
     axis 0 0 0  XYZ
  end
  begin
     id 2 
     name lfemur
     direction 0.34202 -0.939693 0  
     length 7.44995  
     axis 0 0 20  XYZ
    dof rx ry rz
    limits (-160.0 20.0)
           (-70.0 70.0)
           (-60.0 70.0)
  end
  begin
     id 3 
     name ltibia
     direction 0.34202 -0.939693 0   
     length 7.34467   
     axis 0 0 20   XYZ
    dof rx
    limits (-10.0 170.0)
  end
  begin
     id 4 
     name lfoot
     direction 0.101953 -0.280114 0.954537   
     length 1.72105   
     axis -90 7.62852e-016 20   XYZ
    dof rx rz
    limits (-45.0 90.0)
           (-70.0 20.0)
  end
  begin
     id 5 
     name ltoes
     direction 1.53537e-011 -4.21915e-011 1   
     length 0.865872   
     axis -90 7.62852e-016 20   XYZ
    dof rx
    limits (-90.0 20.0)
  end
  begin
     id 6 
     name rhipjoint
     direction -0.695735 -0.620586 0.361699   
     length 2.81045  
     axis 0 0 0  XYZ 
  end
  begin
     id 7 
     name rfemur
     direction -0.34202 -0.939693 0   
     length 7.29387   
     axis 0 0 -20   XYZ
    dof rx ry rz
    limits (-160.0 20.0)
           (-70.0 70.0)
           (-70.0 60.0)
  end
  begin
     id 8 
     name rtibia
     direction -0.34202 -0.939693 0   
     length 7.44935   
     axis 0 0 -20   XYZ
    dof rx
    limits (-10.0 170.0)
 end
 begin
     id 9 
     name rfoot
     direction -0.104163 -0.286184 0.952496   
     length 1.77731  
     axis -90 -7.62852e-016 -20   XYZ
    dof rx rz
    limits (-45.0 90.0)
           (-20.0 70.0)
  end
  begin
     id 10 
     name rtoes
     direction -1.5355e-011 -4.21888e-011 1   
     length 0.892424   
     axis -90 -7.62852e-016 -20   XYZ
    dof rx
    limits (-90.0 20.0)
  end
  begin
     id 11 
     name lowerback
     direction 0.0100202 0.997226 -0.0737589   
     length 2.16892   
     axis 0 0 0   XYZ
    dof rx ry rz
    limits (-20.0 45.0)
           (-30.0 30.0)
           (-30.0 30.0)
  end
  begin
     id 12 
     name upperback
     direction 0.00432398 0.999988 -0.00215019   
     length 2.17326   
     axis 0 0 0   XYZ
    dof rx ry rz
    limits (-20.0 45.0)
           (-30.0 30.0)
           (-30.0 30.0)
  end
  begin
     id 13 
     name thorax
     direction -0.00195047 0.999485 0.0320434   
     length 2.18139   
     axis 0 0 0   XYZ
    dof rx ry rz
    limits (-20.0 45.0)
           (-30.0 30.0)
           (-30.0 30.0)
  end
  begin
     id 14 
     name lowerneck
     direction 0.00782762 0.986241 0.165128   
     length 1.88415   
     axis 0 0 0   XYZ
    dof rx ry rz
    limits (-20.0 45.0)
           (-30.0 30.0)
           (-30.0 30.0)
  end
  begin
     id 15 
     name upperneck
     direction 0.00988667 0.981098 -0.193258   
     length 1.9242   
     axis 0 0 0   XYZ
    dof rx ry rz
    limits (-20.0 45.0)
           (-30.0 30.0)
           (-30.0 30.0)
  end
  begin
     id 16
     name head
     direction 0.00252199 0.996513 -0.0833958  
     length 1.93887  
     axis 0 0 0   XYZ
    dof rx ry rz
    limits (-20.0 45.0)
           (-30.0 30.0)
           (-30.0 30.0)
  end
  begin
     id 17 
     name lclavicle
     direction 0.929492 0.368193 -0.0218667  
     length 3.5955  
     axis 0 0 0   XYZ
    dof ry rz
    limits (-20.0 10.0)
           (0.0 20.0)
  end
  begin
     id 18 
     name lhumerus
     direction 1 -4.48972e-011 1.41911e-027   
     length 5.2795   
     axis 180 -30 -90   XYZ
    dof rx ry rz
    limits (-60.0 90.0)
           (-90.0 90.0)
           (-90.0 90.0)
  end
  begin
     id 19
     name lradius
     direction 1 -4.48963e-011 7.05772e-027   
     length 3.53504   
     axis 180 -30 -90   XYZ
    dof rx
    limits (-10.0 170.0)
  end
  begin
     id 20
     name lwrist
     direction 1 -4.48957e-011 9.54866e-027   
     length 1.76752   
     axis -7.69462e-015 90 90   XYZ
    dof ry
    limits (-180.0 0.0)
 end
  begin
     id 21 
     name lhand
     direction 1 -4.48979e-011 1.90973e-026   
     length 0.667948   
     axis -1.21857e-014 90 90   XYZ
    dof rx rz
    limits (-90.0 90.0)
           (-45.0 45.0)
  end
  begin
     id 22 
     name lfingers
     direction 1 -4.48987e-011 3.81946e-026   
     length 0.538517   
     axis -2.43714e-014 90 90   XYZ
    dof rx
    limits (0.0 90.0)
  end
  begin
     id 23
     name lthumb
     direction 0.707107 -6.34962e-011 0.707107   
     length 0.773206   
     axis -90 45 2.85299e-015   XYZ
    dof rx rz
    limits (-45.0 45.0)
           (-45.0 45.0)
  end
  begin
     id 24 
     name rclavicle
     direction -0.898763 0.414256 -0.143584   
     length 3.5176  
     axis 0 0 0   XYZ 
    dof ry rz
    limits (-10.0 20.0)
           (-20.0 0.0)
  end
  begin
     id 25 
     name rhumerus
     direction -1 -4.48971e-011 1.129e-027  
     length 5.25035   
     axis 180 30 90   XYZ
    dof rx ry rz
    limits (-90.0 60.0)
           (-90.0 90.0)
           (-90.0 90.0)
  end
  begin
     id 26 
     name rradius
     direction -1 -4.48955e-011 6.34664e-027   
     length 3.58884   
     axis 180 30 90   XYZ
    dof rx
    limits (-10.0 170.0)
  end
  begin
     id 27 
     name rwrist
     direction -1 -4.48966e-011 9.54866e-027   
     length 1.79442   
     axis -7.69462e-015 -90 -90   XYZ
    dof ry
    limits (-180.0 0.0)
  end
  begin
     id 28
     name rhand
     direction -1 -4.48973e-011 1.90973e-026   
     length 0.779235   
     axis -1.21857e-014 -90 -90   XYZ
    dof rx rz
    limits (-90.0 90.0)
           (-45.0 45.0)
  end
  begin
     id 29
     name rfingers
     direction -1 -4.48984e-011 3.81946e-026   
     length 0.62824   
     axis -2.43714e-014 -90 -90   XYZ
    dof rx
    limits (0.0 90.0)
  end
  begin
     id 30
     name rthumb
     direction -0.707107 -6.34968e-011 0.707107   
     length 0.90203   
     axis -90 -45 -2.85299e-015   XYZ
    dof rx rz
    limits (-45.0 45.0)
           (-45.0 45.0)
  end
:hierarchy
  begin
    root lhipjoint rhipjoint lowerback
    lhipjoint lfemur
    lfemur ltibia
    ltibia lfoot
    lfoot ltoes
    rhipjoint rfemur
    rfemur rtibia
    rtibia rfoot
    rfoot rtoes
    lowerback upperback
    upperback thorax
    thorax lowerneck lclavicle rclavicle
    lowerneck upperneck
    upperneck head
    lclavicle lhumerus
    lhumerus lradius
    lradius lwrist
    lwrist lhand lthumb
    lhand lfingers
    rclavicle rhumerus
    rhumerus rradius
    rradius rwrist
    rwrist rhand rthumb
    rhand rfingers
  end

#!OML:ASF I:\Random Stuff\random\construction\7_22_03\Session 2\subj1.ASF
:FULLY-SPECIFIED
:DEGREES
175
root -11.0749 17.8893 -1.79484 -181.163 69.9667 -190.443
lowerback 5.8127 -0.132245 4.84306
upperback 0.319073 0.385589 3.92263
thorax -2.93487 0.203882 1.30128
lowerneck -20.9699 -6.57519 -4.13903
upperneck 41.7139 -9.03738 5.85116
head 20.6729 -2.55458 1.87751
rclavicle -3.37934e-014 3.65764e-014
rhumerus -21.6554 -7.09364 -62.1281
rradius 37.4727
rwrist 16.3269
rhand -29.4845 27.5414
rfingers 7.12502
rthumb -2.8196 -2.41968
lclavicle -3.37934e-014 3.65764e-014
lhumerus -32.845 -9.83486 94.3722
lradius 43.1539
lwrist 22.7583
lhand -17.505 53.6361
lfingers 7.12502
lthumb 8.74807 83.4348
rfemur -17.5824 8.19893 16.9192
rtibia 15.718
rfoot -3.60167 -25.3613
rtoes -1.57387
lfemur -15.1709 10.2696 -17.5141
ltibia 46.8424
lfoot -14.3318 -4.85214
ltoes -20.7454
176
root -10.9903 17.8889 -1.79551 -181.36 70.025 -190.537
lowerback 5.87511 -0.109485 5.02069
upperback 0.34368 0.430314 3.88423
thorax -2.94251 0.223796 1.15865
lowerneck -20.9703 -6.38943 -3.87129
upperneck 41.815 -8.78739 5.71776
head 20.6837 -2.42756 1.82758
rclavicle -2.38542e-015 9.06458e-014
rhumerus -22.4097 -6.90415 -62.4042
rradius 37.9937
rwrist 16.4581
rhand -30.0578 27.5141
rfingers 7.12502
rthumb -3.37326 -2.43892
lclavicle -2.38542e-015 9.06458e-014
lhumerus -32.7927 -9.80773 94.2444
lradius 43.5204
lwrist 22.444
lhand -17.5456 53.6201
lfingers 7.12502
lthumb 8.70888 83.4205
rfemur -17.4054 8.16958 17.0729
rtibia 16.0784
rfoot -3.54387 -25.3072
rtoes -3.16654
lfemur -15.7994 10.3263 -17.6036
ltibia 46.1716
lfoot -14.803 -4.04875
ltoes -21.4291
177
root -10.9087 17.8877 -1.79894 -181.74 70.1147 -190.869
lowerback 5.87594 -0.0959174 5.07262
upperback 0.383341 0.447385 3.84581
thorax -2.90086 0.232047 1.08831
lowerneck -21.1181 -6.15397 -3.65151
upperneck 42.0084 -8.42145 5.54359
head 20.7945 -2.2655 1.79403
rclavicle -2.34566e-014 -4.77083e-014
rhumerus -23.0554 -6.67705 -62.6931
rradius 38.4924
rwrist 16.1333
rhand -30.468 27.3102
rfingers 7.12502
rthumb -3.76939 -2.6362
lclavicle -2.34566e-014 -4.77083e-014
lhumerus -32.6514 -9.64836 94.1442
lradius 43.831
lwrist 22.0774
lhand -17.6602 53.547
lfingers 7.12502
lthumb 8.5983 83.3519
rfemur -17.2054 8.08352 17.13
rtibia 16.4187
rfoot -4.12216 -25.1947
rtoes -2.33462
lfemur -16.4443 10.3115 -17.7693
ltibia 45.3978
lfoot -15.6275 -2.46063
ltoes -25.1538
178
root -10.832 17.8819 -1.80419 -182.159 70.2526 -191.215
lowerback 5.89653 -0.102943 5.07177
upperback 0.449611 0.43458 3.82288
thorax -2.84369 0.227006 1.06582
lowerneck -21.1891 -5.93709 -3.44819
upperneck 42.1058 -8.0893 5.38087
head 20.8232 -2.12547 1.75653
rclavicle 2.14687e-014 2.38542e-014
rhumerus -23.6528 -6.3872 -63.0182
rradius 39.0971
rwrist 15.1869
rhand -30.5723 27.3243
rfingers 7.12502
rthumb -3.87011 -2.62032
lclavicle 2.14687e-014 2.38542e-014
lhumerus -32.5072 -9.52098 94.0465
lradius 44.1661
lwrist 21.7132
lhand -17.8403 53.5615
lfingers 7.12502
lthumb 8.42447 83.3735
rfemur -17.0365 8.01902 17.1871
rtibia 16.7879
rfoot -4.47525 -25.0988
rtoes -2.29982
lfemur -17.0584 10.3838 -17.8966
ltibia 44.553
lfoot -16.0216 -1.85128
ltoes -25.1418
179
root -10.7577 17.8787 -1.80995 -182.354 70.4247 -191.3
lowerback 5.94409 -0.093323 5.12793
upperback 0.501432 0.452061 3.81113
thorax -2.81589 0.236185 1.02071
lowerneck -21.0972 -5.75404 -3.19946
upperneck 42.1137 -7.84479 5.25409
head 20.7497 -2.01104 1.70684
rclavicle 1.43125e-014 -7.79236e-014
rhumerus -24.2448 -6.24858 -63.3091
rradius 39.663
rwrist 14.4281
rhand -30.8175 27.6602
rfingers 7.12502
rthumb -4.10688 -2.27999
lclavicle 1.43125e-014 -7.79236e-014
lhumerus -32.429 -9.58444 93.9651
lradius 44.5699
lwrist 21.5597
lhand -18.2152 53.7592
lfingers 7.12502
lthumb 8.0626 83.5854
rfemur -16.8645 7.99198 17.3446
rtibia 17.1789
rfoot -4.82171 -25.0326
rtoes -2.3472
lfemur -17.609 10.3934 -17.854
ltibia 43.6664
lfoot -16.2482 -2.02342
ltoes -23.5216
180
root -10.6871 17.8768 -1.819 -182.535 70.5952 -191.389
lowerback 6.00253 -0.103387 5.18302
upperback 0.537709 0.445916 3.81158
thorax -2.81089 0.233359 0.990864
lowerneck -21.0855 -5.49746 -2.88406
upperneck 42.182 -7.45792 5.00163
head 20.7172 -1.84708 1.61504
rclavicle 3.49861e-014 -3.49861e-014
rhumerus -24.7458 -6.2611 -63.5457
rradius 40.1973
rwrist 14.1529
rhand -31.2526 28.1477
rfingers 7.12502
rthumb -4.5271 -1.78394
lclavicle 3.49861e-014 -3.49861e-014
lhumerus -32.3613 -9.59115 93.9015
lradius 45.151
lwrist 21.6544
lhand -18.4331 54.3545
lfingers 7.12502
lthumb 7.85232 84.1887
rfemur -16.6895 7.97951 17.469
rtibia 17.5175
rfoot -5.24648 -24.975
rtoes -2.18853
lfemur -18.1763 10.3211 -17.7949
ltibia 42.7484
lfoot -16.5652 -1.99243
ltoes -23.8114
181
root -10.6223 17.8729 -1.83332 -182.924 70.7952 -191.747
lowerback 6.0483 -0.142748 5.17085
upperback 0.581084 0.393751 3.8053
thorax -2.79266 0.208342 0.995351
lowerneck -21.2384 -5.16205 -2.63401
upperneck 42.3771 -6.91998 4.7588
head 20.8216 -1.62907 1.5788
rclavicle 3.1408e-014 5.88403e-014
rhumerus -25.0927 -6.21929 -63.7786
rradius 40.7085
rwrist 13.7998
rhand -31.9713 28.9759
rfingers 7.12502
rthumb -5.22101 -0.939808
lclavicle 3.1408e-014 5.88403e-014
lhumerus -32.2272 -9.42312 93.8506
lradius 45.7186
lwrist 21.595
lhand -18.3301 54.7839
lfingers 7.12502
lthumb 7.95173 84.6143
rfemur -16.5675 8.01 17.4579
rtibia 17.8092
rfoot -5.65978 -24.9335
rtoes -2.02052
lfemur -18.8012 10.2381 -17.8545
ltibia 41.7861
lfoot -16.8021 -1.82942
ltoes -25.0949
182
root -10.5581 17.8687 -1.84906 -183.149 71.0538 -191.966
lowerback 6.03513 -0.146754 5.19736
upperback 0.613719 0.386503 3.79306
thorax -2.75133 0.205303 0.968366
lowerneck -21.3579 -4.90386 -2.48306
upperneck 42.5985 -6.49607 4.61156
head 20.9625 -1.4547 1.58541
rclavicle 8.70677e-014 -3.81667e-014
rhumerus -25.4591 -6.0768 -64.0574
rradius 41.2267
rwrist 12.8938
rhand -33.296 30.458
rfingers 7.12502
rthumb -6.49995 0.577784
lclavicle 8.70677e-014 -3.81667e-014
lhumerus -32.0984 -9.36021 93.7981
lradius 46.186
lwrist 21.2155
lhand -17.9985 54.5517
lfingers 7.12502
lthumb 8.2718 84.3697
rfemur -16.4807 8.09482 17.5017
rtibia 18.079
rfoot -5.97366 -24.8915
rtoes -2.26574
lfemur -19.4092 10.1389 -17.8287
ltibia 40.7723
lfoot -16.8565 -1.97411
ltoes -25.4888
183
root -10.4939 17.8638 -1.86713 -183.202 71.3627 -192.017
lowerback 5.96054 -0.0979622 5.27235
upperback 0.646363 0.447306 3.77508
thorax -2.67372 0.23613 0.902812
lowerneck -21.3847 -4.70096 -2.31356
upperneck 42.7192 -6.16961 4.46165
head 21.012 -1.31968 1.56014
rclavicle -2.94201e-014 -5.08889e-014
rhumerus -25.8141 -5.8935 -64.3983
rradius 41.7202
rwrist 11.8915
rhand -35.2893 32.5428
rfingers 7.12502
rthumb -8.42393 2.73085
lclavicle -2.94201e-014 -5.08889e-014
lhumerus -32.0519 -9.78399 93.8588
lradius 46.8768
lwrist 21.3729
lhand -18.2186 54.9278
lfingers 7.12502
lthumb 8.05933 84.7542
rfemur -16.3673 8.24653 17.5981
rtibia 18.2724
rfoot -6.26773 -24.8331
rtoes -2.47906
lfemur -19.9809 10.193 -17.7171
ltibia 39.7115
lfoot -17.028 -1.8694
ltoes -27.3549
184
root -10.4358 17.8583 -1.89144 -183.399 71.6827 -192.172
lowerback 5.95407 -0.0753368 5.34274
upperback 0.703478 0.477308 3.75253
thorax -2.60949 0.25196 0.837676
lowerneck -21.4211 -4.45348 -2.11233
upperneck 42.8007 -5.79651 4.32179
head 21.0347 -1.16377 1.54256
rclavicle 4.13472e-014 2.70347e-014
rhumerus -26.0321 -5.7688 -64.7367
rradius 42.286
rwrist 11.8413
rhand -37.3054 33.769
rfingers 7.12502
rthumb -10.3693 4.04466
lclavicle 4.13472e-014 2.70347e-014
lhumerus -31.9184 -10.1473 93.909
lradius 47.5173
lwrist 21.3777
lhand -18.2487 55.0518
lfingers 7.12502
lthumb 8.03026 84.8792
rfemur -16.1842 8.38211 17.632
rtibia 18.3697
rfoot -6.46334 -24.7545
rtoes -3.12261
lfemur -20.4666 10.0698 -17.6193
ltibia 38.617
lfoot -17.3159 -1.24428
ltoes -29.14
185
root -10.3827 17.8551 -1.9202 -183.599 71.999 -192.286
lowerback 6.03328 -0.099387 5.45654
upperback 0.764087 0.456114 3.73256
thorax -2.59067 0.241635 0.755152
lowerneck -21.4662 -4.20472 -1.87758
upperneck 42.9154 -5.39576 4.09125
head 21.0765 -1.0044 1.47908
rclavicle -1.15295e-014 -2.22639e-014
rhumerus -26.2499 -5.80479 -65.0048
rradius 43.092
rwrist 12.4806
rhand -38.5551 32.9903
rfingers 7.12502
rthumb -11.5746 3.32991
lclavicle -1.15295e-014 -2.22639e-014
lhumerus -31.6554 -10.2073 93.8982
lradius 48.014
lwrist 21.1268
lhand -18.3382 55.0042
lfingers 7.12502
lthumb 7.94389 84.8349
rfemur -15.9215 8.50659 17.6679
rtibia 18.3749
rfoot -6.49093 -24.7205
rtoes -4.29463
lfemur -20.846 9.6645 -17.4671
ltibia 37.4861
lfoot -17.5165 -0.410417
ltoes -29.7559
186
root -10.3322 17.858 -1.94909 -183.638 72.3336 -192.329
lowerback 6.03293 -0.146842 5.5098
upperback 0.783567 0.397189 3.75453
thorax -2.57177 0.21304 0.753011
lowerneck -21.4277 -3.91077 -1.64845
upperneck 43.0035 -4.89891 3.8171
head 21.0693 -0.818976 1.4151
rclavicle 1.66979e-014 2.22639e-014
rhumerus -26.4668 -5.70144 -65.2526
rradius 44.0448
rwrist 11.6839
rhand -38.5361 31.4595
rfingers 7.12502
rthumb -11.5563 1.79809
lclavicle 1.66979e-014 2.22639e-014
lhumerus -31.3745 -10.1022 93.8426
lradius 48.5051
lwrist 20.8563
lhand -18.3362 55.0047
lfingers 7.12502
lthumb 7.94583 84.8353
rfemur -15.695 8.58366 17.734
rtibia 18.2483
rfoot -6.37786 -24.6524
rtoes -5.57108
lfemur -21.2921 9.36649 -17.2513
ltibia 36.3259
lfoot -17.5076 0.193682
ltoes -30.2705
